<?xml version="1.0" encoding="UTF-8"?>
<svg id="Layer_2" data-name="Layer 2" xmlns="http://www.w3.org/2000/svg" viewBox="0 0 237.79 86.84">
  <defs>
    <style>
      .cls-1 {
        fill: #4a4138;
      }

      .cls-2 {
        fill: #95c83d;
      }

      .cls-3 {
        fill: #98c93c;
      }
    </style>
  </defs>
  <g id="Layer_1-2" data-name="Layer 1">
    <path class="cls-3" d="M182.26,72.97c-.91.73-1.37,1.7-1.37,2.93,0,.92.28,1.73.85,2.42.57.7,1.43,1.31,2.58,1.83.97.47,1.76.87,2.37,1.2.74.42,1.11.98,1.11,1.65,0,.49-.21.89-.64,1.19-.42.3-.98.45-1.67.45-1.38,0-2.85-.65-4.41-1.94v2.78c.84.5,1.59.85,2.26,1.06.67.21,1.47.31,2.41.31,1.43,0,2.6-.38,3.5-1.15.9-.77,1.35-1.78,1.35-3.03,0-.97-.26-1.8-.79-2.49-.53-.69-1.39-1.32-2.59-1.88-1.4-.64-2.2-1.03-2.41-1.17-.75-.47-1.12-.98-1.12-1.53,0-.46.2-.83.6-1.1.4-.28.96-.41,1.67-.41,1.17,0,2.51.46,4.02,1.37v-2.51c-1.32-.71-2.68-1.07-4.11-1.07-1.5,0-2.7.36-3.61,1.09M164.39,72.06v2.2h5.18v12.39h2.82v-12.39h5.18v-2.2h-13.18ZM146.21,72.06v14.59h2.76v-10.35l8.72,10.35h2.42v-14.59h-2.76v10.18l-8.67-10.18h-2.48ZM131.86,72.06v14.59h9.58v-2.2h-6.76v-4.15h6.33v-2.2h-6.33v-3.83h6.61v-2.2h-9.43ZM123.62,86.65h2.82v-14.59h-2.82v14.59ZM110.46,78.29v-4.06h1.75c.77,0,1.37.17,1.79.5.42.33.63.83.63,1.5s-.21,1.15-.63,1.51c-.42.37-1,.55-1.74.55h-1.8ZM107.64,72.06v14.59h2.82v-6.16h1.02c.45,0,.85.11,1.2.34.35.23.71.61,1.09,1.15.38.54.97,1.59,1.78,3.14.37.7.66,1.22.88,1.54h3.14c-.43-.67-1.09-1.89-1.98-3.66-.54-1.02-.99-1.75-1.35-2.18-.36-.43-.78-.77-1.24-1.02.84-.35,1.48-.84,1.91-1.46.43-.62.64-1.34.64-2.17,0-1.22-.43-2.21-1.3-2.97-.86-.76-1.98-1.14-3.35-1.14h-5.25ZM90.18,72.06v2.2h5.18v12.39h2.82v-12.39h5.18v-2.2h-13.18ZM72.67,72.06v8.77c0,1.23.26,2.29.78,3.2s1.28,1.6,2.27,2.08c.99.48,2.16.72,3.52.72,2.15,0,3.82-.53,4.99-1.58s1.77-2.56,1.77-4.53v-8.67h-2.82v8.3c0,.97-.14,1.73-.42,2.27-.28.55-.72.98-1.32,1.3-.6.32-1.34.48-2.2.48-.79,0-1.48-.17-2.07-.5-.59-.33-1.02-.76-1.28-1.27-.26-.52-.39-1.21-.39-2.08v-8.49h-2.83ZM53.54,72.06v14.59h2.76v-10.35l8.72,10.35h2.42v-14.59h-2.76v10.18l-8.67-10.18h-2.48ZM43.56,83.04h5.41v-2.47h-5.41v2.47ZM27.02,76.75c.42-.77,1.03-1.37,1.82-1.8.79-.43,1.68-.64,2.67-.64s1.88.21,2.67.64c.79.42,1.4,1.03,1.84,1.8.43.78.65,1.65.65,2.62,0,1.48-.48,2.7-1.45,3.64-.96.94-2.2,1.41-3.69,1.41-.99,0-1.87-.21-2.66-.64-.78-.42-1.39-1.02-1.83-1.8-.44-.77-.66-1.64-.66-2.61s.21-1.85.64-2.62M27.35,72.85c-1.21.65-2.16,1.57-2.85,2.74-.69,1.18-1.03,2.43-1.03,3.77s.34,2.65,1.03,3.8c.69,1.15,1.65,2.05,2.89,2.7,1.24.65,2.61.98,4.12.98s2.91-.32,4.13-.97c1.22-.64,2.18-1.55,2.88-2.72.7-1.17,1.05-2.43,1.05-3.8s-.36-2.69-1.08-3.86c-.72-1.17-1.68-2.07-2.89-2.7-1.21-.62-2.57-.94-4.08-.94s-2.97.33-4.18.98M15.81,86.65h2.82v-14.59h-2.82v14.59ZM3,84.45v-4.13h2.65c.81,0,1.46.18,1.95.54.48.36.73.85.73,1.47,0,.7-.24,1.22-.73,1.58-.49.36-1.21.54-2.16.54h-2.43ZM3,78.12v-3.85h2.03c.65,0,1.17.17,1.57.5.4.33.6.78.6,1.34,0,.63-.22,1.13-.65,1.48-.43.36-1.02.53-1.77.53h-1.78ZM.17,72.06v14.59h6.11c1,0,1.86-.16,2.6-.48.73-.32,1.31-.8,1.72-1.44.41-.64.62-1.36.62-2.17,0-.91-.28-1.71-.85-2.39-.57-.68-1.36-1.13-2.38-1.36v-.13c.67-.3,1.18-.7,1.53-1.21.35-.51.53-1.1.53-1.77,0-1.04-.42-1.91-1.26-2.61-.84-.7-1.93-1.04-3.27-1.04H.17Z"/>
    <g>
      <path class="cls-1" d="M38.12,54.86l-1.92-6.56c-.38-.99-.68-1.97-.97-2.9-.47-1.51-.92-2.94-1.59-4.18-1.05-1.89-2.51-3.03-4.64-3.55,5.79-1.08,9.19-5.34,9.19-11.65,0-11.73-9.22-12.7-19.5-12.7H0v5.12h5.83v36.44H0v5.12h18.47v-5.12h-5.83v-14.96h5.2c8.54,0,9.27,1.53,11.7,9.65l3.17,10.43h9.92v-5.12h-4.52ZM12.65,34.79v-16.36h4.84c6,0,13.45,0,13.45,7.58,0,8.78-6.54,8.78-13.45,8.78h-4.84Z"/>
      <path class="cls-1" d="M70.13,49.65c-.34,4.04-5.45,5.92-8.79,5.92-7.56,0-11.29-3.28-11.41-10.02h26.46v-.31c-.06-8.53-2.86-18.69-15.83-18.69-10.77,0-17.45,6.54-17.45,17.07s6.69,17.07,17.45,17.07c7.04,0,15.33-2.88,15.55-11v-.32s-5.95,0-5.95,0l-.02.28ZM49.94,40.42c.17-5.75,5.22-8.76,10.2-8.76,5.89,0,9.37,3.11,9.83,8.76h-20.03Z"/>
      <path class="cls-1" d="M113.57,54.86V13.3h-10.88v5.12h4.48v13.98c-2.2-4.04-7.12-5.86-11.26-5.86-9.51,0-15.9,6.86-15.9,17.07s5.94,17.07,15.9,17.07c4.88,0,9.44-2.56,11.26-6.15v5.45h10.82v-5.12h-4.41ZM86.83,43.62c0-7.48,3.87-11.95,10.35-11.95s10,4.47,10,11.95c0,5.51-2.62,11.95-10,11.95s-10.35-6.44-10.35-11.95"/>
      <path class="cls-1" d="M135.37,26.55c-10.77,0-17.45,6.54-17.45,17.07s6.69,17.07,17.45,17.07,17.17-6.54,17.17-17.07-6.58-17.07-17.17-17.07M135.37,55.57c-7.85,0-10.63-6.44-10.63-11.95s2.78-11.95,10.63-11.95,10.35,6.17,10.35,11.95-2.72,11.95-10.35,11.95"/>
      <path class="cls-1" d="M176.48,45.01c-1.24,1.01-3.65,3.01-4.5,3.89l5.7,5.96h-4.58v5.12h16.54v-5.12l-3.68.09-9.48-9.95Z"/>
      <path class="cls-1" d="M167.79,44.55c.85-.9,3.56-3.79,4.07-4.32l-7.42-7.86h4.01v-5.12h-15.9v5.12l3.61-.09,11.63,12.27Z"/>
      <path class="cls-2" d="M196.78,26.55c-13.2,9.92-20.22,14.49-38.62,33.44h-5.21c6.25-6.92,11.52-12.64,17.08-18.88C185.87,23.29,209.45-1.21,237.79.05c0,0-8.12,1.74-14.08,5.86-6.59,4.55-16,12.42-26.93,20.64"/>
    </g>
  </g>
</svg>